<svg xmlns="http://www.w3.org/2000/svg" viewBox="0 0 79.17 92.8"><defs><style>.cls-1{fill:#9ccc98;}</style></defs><g id="Calque_2" data-name="Calque 2"><g id="Calque_1-2" data-name="Calque 1"><path class="cls-1" d="M67.05,5C58.45,1.29,49.39.09,38.53,0,28.67.3,17.44,1.44,7.46,7.81c-4.83,3.08-8,6.78-7.38,13.26.67,6.7,1,13.46,2.15,20.09C5.05,57,10,72.11,22.49,83,37.71,96.23,41,95.5,55.59,84.23a36.86,36.86,0,0,0,5.83-6c12.82-15.87,16.47-34.8,17.67-54.43C79.72,13.39,76.8,9.28,67.05,5ZM15,35.18c6.28-8.89,11.38-9.56,19.75-2.57C31.54,35.13,22.34,36.32,15,35.18Zm42.33,20c-2.13,4.45-4.41,8.8-8.23,12.15-5.82,5.09-12.9,5.15-18.71,0-4.95-4.39-7.65-10.16-10-16.53a7.46,7.46,0,0,1,5.12.25,48.46,48.46,0,0,0,28.59,0c1.39-.4,3.05-1.41,4.11,0S57.92,54,57.31,55.22ZM44,33.57c8.35-8,13-7.58,20.9,1.7C57.75,36.34,51.18,34.93,44,33.57Z"/></g></g></svg>