<svg xmlns="http://www.w3.org/2000/svg" viewBox="0 0 79.3 92.6"><defs><style>.cls-1{fill:#f5dcab;}</style></defs><g id="Calque_2" data-name="Calque 2"><g id="Calque_1-2" data-name="Calque 1"><path class="cls-1" d="M69,6C59.83,1.21,49.9.06,39.78.06c-2,0-4-.15-5.92,0C22.61,1.13,11.61,2.92,3,11.28c-1.53,1.48-3,3-3,5.4.25,18.46,2.57,36.46,11.75,52.9,5.44,9.75,13,17.32,23.28,22a10.08,10.08,0,0,0,9,0c10.12-4.63,17.52-12.12,23-21.61,8.38-14.49,10.56-30.52,12.19-46.86C80.06,14.17,75.79,9.55,69,6ZM18.17,36.53c0-2.72,3.58-4.92,8-4.92s8,2.2,8,4.92-3.57,4.93-8,4.93S18.17,39.25,18.17,36.53Zm35,34.3h-27V68.66h27Zm0-29.37c-4.42,0-8-2.21-8-4.93s3.57-4.92,8-4.92,8,2.2,8,4.92S57.54,41.46,53.13,41.46Z"/></g></g></svg>