<svg xmlns="http://www.w3.org/2000/svg" viewBox="0 0 79.3 92.61"><defs><style>.cls-1{fill:#db3d59;}</style></defs><g id="Calque_2" data-name="Calque 2"><g id="Calque_1-2" data-name="Calque 1"><path class="cls-1" d="M69,6C59.84,1.22,49.91.07,39.79.07c-2,0-4-.16-5.93,0C22.61,1.14,11.61,2.93,3,11.28c-1.52,1.49-3,3-3,5.41.25,18.45,2.57,36.45,11.75,52.9,5.44,9.74,13,17.31,23.29,22a10.06,10.06,0,0,0,9,0c10.12-4.63,17.52-12.12,23-21.61,8.37-14.49,10.55-30.52,12.18-46.86C80.07,14.18,75.79,9.56,69,6ZM16.06,40.11c5.11-4.47,10.88-6.74,17.49-8.32-.33,4.86-1.63,9-5.74,11S20,42.32,16.06,40.11ZM56.89,66.17c-1.26,1.81-2.47.61-3.73-.26-9.16-6.38-18.33-6.34-27.42.15-1.14.81-2.22,1.71-3.39.28s0-2.46.94-3.32c4.69-4.1,10.33-5.54,16.22-5.72,6.09.2,11.56,1.64,16.14,5.58C56.63,63.72,57.91,64.7,56.89,66.17ZM51.45,42.92c-4.23-2-5.48-6.15-6-11.15C52.15,33.55,58,35.58,63,40.06,59.26,42.38,55.63,44.86,51.45,42.92Z"/></g></g></svg>